<?xml version="1.0" encoding="utf-8" standalone="no"?>
<!DOCTYPE svg PUBLIC "-//W3C//DTD SVG 1.1//EN"
  "http://www.w3.org/Graphics/SVG/1.1/DTD/svg11.dtd">
<!-- Created with matplotlib (https://matplotlib.org/) -->
<svg height="576pt" version="1.1" viewBox="0 0 864 576" width="864pt" xmlns="http://www.w3.org/2000/svg" xmlns:xlink="http://www.w3.org/1999/xlink">
 <defs>
  <style type="text/css">
*{stroke-linecap:butt;stroke-linejoin:round;}
  </style>
 </defs>
 <g id="figure_1">
  <g id="patch_1">
   <path d="M 0 576 
L 864 576 
L 864 0 
L 0 0 
z
" style="fill:#f0f0f0;"/>
  </g>
  <g id="axes_1">
   <g id="patch_2">
    <path d="M 69.12 535.68 
L 820.8 535.68 
L 820.8 69.12 
L 69.12 69.12 
z
" style="fill:#f0f0f0;"/>
   </g>
   <g id="matplotlib.axis_1">
    <g id="xtick_1">
     <g id="line2d_1"/>
     <g id="text_1">
      <!-- 20 -->
      <defs>
       <path d="M 19.1875 8.296875 
L 53.609375 8.296875 
L 53.609375 0 
L 7.328125 0 
L 7.328125 8.296875 
Q 12.9375 14.109375 22.625 23.890625 
Q 32.328125 33.6875 34.8125 36.53125 
Q 39.546875 41.84375 41.421875 45.53125 
Q 43.3125 49.21875 43.3125 52.78125 
Q 43.3125 58.59375 39.234375 62.25 
Q 35.15625 65.921875 28.609375 65.921875 
Q 23.96875 65.921875 18.8125 64.3125 
Q 13.671875 62.703125 7.8125 59.421875 
L 7.8125 69.390625 
Q 13.765625 71.78125 18.9375 73 
Q 24.125 74.21875 28.421875 74.21875 
Q 39.75 74.21875 46.484375 68.546875 
Q 53.21875 62.890625 53.21875 53.421875 
Q 53.21875 48.921875 51.53125 44.890625 
Q 49.859375 40.875 45.40625 35.40625 
Q 44.1875 33.984375 37.640625 27.21875 
Q 31.109375 20.453125 19.1875 8.296875 
z
" id="DejaVuSans-50"/>
       <path d="M 31.78125 66.40625 
Q 24.171875 66.40625 20.328125 58.90625 
Q 16.5 51.421875 16.5 36.375 
Q 16.5 21.390625 20.328125 13.890625 
Q 24.171875 6.390625 31.78125 6.390625 
Q 39.453125 6.390625 43.28125 13.890625 
Q 47.125 21.390625 47.125 36.375 
Q 47.125 51.421875 43.28125 58.90625 
Q 39.453125 66.40625 31.78125 66.40625 
z
M 31.78125 74.21875 
Q 44.046875 74.21875 50.515625 64.515625 
Q 56.984375 54.828125 56.984375 36.375 
Q 56.984375 17.96875 50.515625 8.265625 
Q 44.046875 -1.421875 31.78125 -1.421875 
Q 19.53125 -1.421875 13.0625 8.265625 
Q 6.59375 17.96875 6.59375 36.375 
Q 6.59375 54.828125 13.0625 64.515625 
Q 19.53125 74.21875 31.78125 74.21875 
z
" id="DejaVuSans-48"/>
      </defs>
      <g transform="translate(122.385734 549.817813)scale(0.14 -0.14)">
       <use xlink:href="#DejaVuSans-50"/>
       <use x="63.623047" xlink:href="#DejaVuSans-48"/>
      </g>
     </g>
    </g>
    <g id="xtick_2">
     <g id="line2d_2"/>
     <g id="text_2">
      <!-- 40 -->
      <defs>
       <path d="M 37.796875 64.3125 
L 12.890625 25.390625 
L 37.796875 25.390625 
z
M 35.203125 72.90625 
L 47.609375 72.90625 
L 47.609375 25.390625 
L 58.015625 25.390625 
L 58.015625 17.1875 
L 47.609375 17.1875 
L 47.609375 0 
L 37.796875 0 
L 37.796875 17.1875 
L 4.890625 17.1875 
L 4.890625 26.703125 
z
" id="DejaVuSans-52"/>
      </defs>
      <g transform="translate(234.409579 549.817813)scale(0.14 -0.14)">
       <use xlink:href="#DejaVuSans-52"/>
       <use x="63.623047" xlink:href="#DejaVuSans-48"/>
      </g>
     </g>
    </g>
    <g id="xtick_3">
     <g id="line2d_3"/>
     <g id="text_3">
      <!-- 60 -->
      <defs>
       <path d="M 33.015625 40.375 
Q 26.375 40.375 22.484375 35.828125 
Q 18.609375 31.296875 18.609375 23.390625 
Q 18.609375 15.53125 22.484375 10.953125 
Q 26.375 6.390625 33.015625 6.390625 
Q 39.65625 6.390625 43.53125 10.953125 
Q 47.40625 15.53125 47.40625 23.390625 
Q 47.40625 31.296875 43.53125 35.828125 
Q 39.65625 40.375 33.015625 40.375 
z
M 52.59375 71.296875 
L 52.59375 62.3125 
Q 48.875 64.0625 45.09375 64.984375 
Q 41.3125 65.921875 37.59375 65.921875 
Q 27.828125 65.921875 22.671875 59.328125 
Q 17.53125 52.734375 16.796875 39.40625 
Q 19.671875 43.65625 24.015625 45.921875 
Q 28.375 48.1875 33.59375 48.1875 
Q 44.578125 48.1875 50.953125 41.515625 
Q 57.328125 34.859375 57.328125 23.390625 
Q 57.328125 12.15625 50.6875 5.359375 
Q 44.046875 -1.421875 33.015625 -1.421875 
Q 20.359375 -1.421875 13.671875 8.265625 
Q 6.984375 17.96875 6.984375 36.375 
Q 6.984375 53.65625 15.1875 63.9375 
Q 23.390625 74.21875 37.203125 74.21875 
Q 40.921875 74.21875 44.703125 73.484375 
Q 48.484375 72.75 52.59375 71.296875 
z
" id="DejaVuSans-54"/>
      </defs>
      <g transform="translate(346.433424 549.817813)scale(0.14 -0.14)">
       <use xlink:href="#DejaVuSans-54"/>
       <use x="63.623047" xlink:href="#DejaVuSans-48"/>
      </g>
     </g>
    </g>
    <g id="xtick_4">
     <g id="line2d_4"/>
     <g id="text_4">
      <!-- 80 -->
      <defs>
       <path d="M 31.78125 34.625 
Q 24.75 34.625 20.71875 30.859375 
Q 16.703125 27.09375 16.703125 20.515625 
Q 16.703125 13.921875 20.71875 10.15625 
Q 24.75 6.390625 31.78125 6.390625 
Q 38.8125 6.390625 42.859375 10.171875 
Q 46.921875 13.96875 46.921875 20.515625 
Q 46.921875 27.09375 42.890625 30.859375 
Q 38.875 34.625 31.78125 34.625 
z
M 21.921875 38.8125 
Q 15.578125 40.375 12.03125 44.71875 
Q 8.5 49.078125 8.5 55.328125 
Q 8.5 64.0625 14.71875 69.140625 
Q 20.953125 74.21875 31.78125 74.21875 
Q 42.671875 74.21875 48.875 69.140625 
Q 55.078125 64.0625 55.078125 55.328125 
Q 55.078125 49.078125 51.53125 44.71875 
Q 48 40.375 41.703125 38.8125 
Q 48.828125 37.15625 52.796875 32.3125 
Q 56.78125 27.484375 56.78125 20.515625 
Q 56.78125 9.90625 50.3125 4.234375 
Q 43.84375 -1.421875 31.78125 -1.421875 
Q 19.734375 -1.421875 13.25 4.234375 
Q 6.78125 9.90625 6.78125 20.515625 
Q 6.78125 27.484375 10.78125 32.3125 
Q 14.796875 37.15625 21.921875 38.8125 
z
M 18.3125 54.390625 
Q 18.3125 48.734375 21.84375 45.5625 
Q 25.390625 42.390625 31.78125 42.390625 
Q 38.140625 42.390625 41.71875 45.5625 
Q 45.3125 48.734375 45.3125 54.390625 
Q 45.3125 60.0625 41.71875 63.234375 
Q 38.140625 66.40625 31.78125 66.40625 
Q 25.390625 66.40625 21.84375 63.234375 
Q 18.3125 60.0625 18.3125 54.390625 
z
" id="DejaVuSans-56"/>
      </defs>
      <g transform="translate(458.457269 549.817813)scale(0.14 -0.14)">
       <use xlink:href="#DejaVuSans-56"/>
       <use x="63.623047" xlink:href="#DejaVuSans-48"/>
      </g>
     </g>
    </g>
    <g id="xtick_5">
     <g id="line2d_5"/>
     <g id="text_5">
      <!-- 100 -->
      <defs>
       <path d="M 12.40625 8.296875 
L 28.515625 8.296875 
L 28.515625 63.921875 
L 10.984375 60.40625 
L 10.984375 69.390625 
L 28.421875 72.90625 
L 38.28125 72.90625 
L 38.28125 8.296875 
L 54.390625 8.296875 
L 54.390625 0 
L 12.40625 0 
z
" id="DejaVuSans-49"/>
      </defs>
      <g transform="translate(566.027364 549.817813)scale(0.14 -0.14)">
       <use xlink:href="#DejaVuSans-49"/>
       <use x="63.623047" xlink:href="#DejaVuSans-48"/>
       <use x="127.246094" xlink:href="#DejaVuSans-48"/>
      </g>
     </g>
    </g>
    <g id="xtick_6">
     <g id="line2d_6"/>
     <g id="text_6">
      <!-- 120 -->
      <g transform="translate(678.051209 549.817813)scale(0.14 -0.14)">
       <use xlink:href="#DejaVuSans-49"/>
       <use x="63.623047" xlink:href="#DejaVuSans-50"/>
       <use x="127.246094" xlink:href="#DejaVuSans-48"/>
      </g>
     </g>
    </g>
    <g id="xtick_7">
     <g id="line2d_7"/>
     <g id="text_7">
      <!-- 140 -->
      <g transform="translate(790.075054 549.817813)scale(0.14 -0.14)">
       <use xlink:href="#DejaVuSans-49"/>
       <use x="63.623047" xlink:href="#DejaVuSans-52"/>
       <use x="127.246094" xlink:href="#DejaVuSans-48"/>
      </g>
     </g>
    </g>
    <g id="text_8">
     <!-- Annual Income (k$) -->
     <defs>
      <path d="M 34.1875 63.1875 
L 20.796875 26.90625 
L 47.609375 26.90625 
z
M 28.609375 72.90625 
L 39.796875 72.90625 
L 67.578125 0 
L 57.328125 0 
L 50.6875 18.703125 
L 17.828125 18.703125 
L 11.1875 0 
L 0.78125 0 
z
" id="DejaVuSans-65"/>
      <path d="M 54.890625 33.015625 
L 54.890625 0 
L 45.90625 0 
L 45.90625 32.71875 
Q 45.90625 40.484375 42.875 44.328125 
Q 39.84375 48.1875 33.796875 48.1875 
Q 26.515625 48.1875 22.3125 43.546875 
Q 18.109375 38.921875 18.109375 30.90625 
L 18.109375 0 
L 9.078125 0 
L 9.078125 54.6875 
L 18.109375 54.6875 
L 18.109375 46.1875 
Q 21.34375 51.125 25.703125 53.5625 
Q 30.078125 56 35.796875 56 
Q 45.21875 56 50.046875 50.171875 
Q 54.890625 44.34375 54.890625 33.015625 
z
" id="DejaVuSans-110"/>
      <path d="M 8.5 21.578125 
L 8.5 54.6875 
L 17.484375 54.6875 
L 17.484375 21.921875 
Q 17.484375 14.15625 20.5 10.265625 
Q 23.53125 6.390625 29.59375 6.390625 
Q 36.859375 6.390625 41.078125 11.03125 
Q 45.3125 15.671875 45.3125 23.6875 
L 45.3125 54.6875 
L 54.296875 54.6875 
L 54.296875 0 
L 45.3125 0 
L 45.3125 8.40625 
Q 42.046875 3.421875 37.71875 1 
Q 33.40625 -1.421875 27.6875 -1.421875 
Q 18.265625 -1.421875 13.375 4.4375 
Q 8.5 10.296875 8.5 21.578125 
z
M 31.109375 56 
z
" id="DejaVuSans-117"/>
      <path d="M 34.28125 27.484375 
Q 23.390625 27.484375 19.1875 25 
Q 14.984375 22.515625 14.984375 16.5 
Q 14.984375 11.71875 18.140625 8.90625 
Q 21.296875 6.109375 26.703125 6.109375 
Q 34.1875 6.109375 38.703125 11.40625 
Q 43.21875 16.703125 43.21875 25.484375 
L 43.21875 27.484375 
z
M 52.203125 31.203125 
L 52.203125 0 
L 43.21875 0 
L 43.21875 8.296875 
Q 40.140625 3.328125 35.546875 0.953125 
Q 30.953125 -1.421875 24.3125 -1.421875 
Q 15.921875 -1.421875 10.953125 3.296875 
Q 6 8.015625 6 15.921875 
Q 6 25.140625 12.171875 29.828125 
Q 18.359375 34.515625 30.609375 34.515625 
L 43.21875 34.515625 
L 43.21875 35.40625 
Q 43.21875 41.609375 39.140625 45 
Q 35.0625 48.390625 27.6875 48.390625 
Q 23 48.390625 18.546875 47.265625 
Q 14.109375 46.140625 10.015625 43.890625 
L 10.015625 52.203125 
Q 14.9375 54.109375 19.578125 55.046875 
Q 24.21875 56 28.609375 56 
Q 40.484375 56 46.34375 49.84375 
Q 52.203125 43.703125 52.203125 31.203125 
z
" id="DejaVuSans-97"/>
      <path d="M 9.421875 75.984375 
L 18.40625 75.984375 
L 18.40625 0 
L 9.421875 0 
z
" id="DejaVuSans-108"/>
      <path id="DejaVuSans-32"/>
      <path d="M 9.8125 72.90625 
L 19.671875 72.90625 
L 19.671875 0 
L 9.8125 0 
z
" id="DejaVuSans-73"/>
      <path d="M 48.78125 52.59375 
L 48.78125 44.1875 
Q 44.96875 46.296875 41.140625 47.34375 
Q 37.3125 48.390625 33.40625 48.390625 
Q 24.65625 48.390625 19.8125 42.84375 
Q 14.984375 37.3125 14.984375 27.296875 
Q 14.984375 17.28125 19.8125 11.734375 
Q 24.65625 6.203125 33.40625 6.203125 
Q 37.3125 6.203125 41.140625 7.25 
Q 44.96875 8.296875 48.78125 10.40625 
L 48.78125 2.09375 
Q 45.015625 0.34375 40.984375 -0.53125 
Q 36.96875 -1.421875 32.421875 -1.421875 
Q 20.0625 -1.421875 12.78125 6.34375 
Q 5.515625 14.109375 5.515625 27.296875 
Q 5.515625 40.671875 12.859375 48.328125 
Q 20.21875 56 33.015625 56 
Q 37.15625 56 41.109375 55.140625 
Q 45.0625 54.296875 48.78125 52.59375 
z
" id="DejaVuSans-99"/>
      <path d="M 30.609375 48.390625 
Q 23.390625 48.390625 19.1875 42.75 
Q 14.984375 37.109375 14.984375 27.296875 
Q 14.984375 17.484375 19.15625 11.84375 
Q 23.34375 6.203125 30.609375 6.203125 
Q 37.796875 6.203125 41.984375 11.859375 
Q 46.1875 17.53125 46.1875 27.296875 
Q 46.1875 37.015625 41.984375 42.703125 
Q 37.796875 48.390625 30.609375 48.390625 
z
M 30.609375 56 
Q 42.328125 56 49.015625 48.375 
Q 55.71875 40.765625 55.71875 27.296875 
Q 55.71875 13.875 49.015625 6.21875 
Q 42.328125 -1.421875 30.609375 -1.421875 
Q 18.84375 -1.421875 12.171875 6.21875 
Q 5.515625 13.875 5.515625 27.296875 
Q 5.515625 40.765625 12.171875 48.375 
Q 18.84375 56 30.609375 56 
z
" id="DejaVuSans-111"/>
      <path d="M 52 44.1875 
Q 55.375 50.25 60.0625 53.125 
Q 64.75 56 71.09375 56 
Q 79.640625 56 84.28125 50.015625 
Q 88.921875 44.046875 88.921875 33.015625 
L 88.921875 0 
L 79.890625 0 
L 79.890625 32.71875 
Q 79.890625 40.578125 77.09375 44.375 
Q 74.3125 48.1875 68.609375 48.1875 
Q 61.625 48.1875 57.5625 43.546875 
Q 53.515625 38.921875 53.515625 30.90625 
L 53.515625 0 
L 44.484375 0 
L 44.484375 32.71875 
Q 44.484375 40.625 41.703125 44.40625 
Q 38.921875 48.1875 33.109375 48.1875 
Q 26.21875 48.1875 22.15625 43.53125 
Q 18.109375 38.875 18.109375 30.90625 
L 18.109375 0 
L 9.078125 0 
L 9.078125 54.6875 
L 18.109375 54.6875 
L 18.109375 46.1875 
Q 21.1875 51.21875 25.484375 53.609375 
Q 29.78125 56 35.6875 56 
Q 41.65625 56 45.828125 52.96875 
Q 50 49.953125 52 44.1875 
z
" id="DejaVuSans-109"/>
      <path d="M 56.203125 29.59375 
L 56.203125 25.203125 
L 14.890625 25.203125 
Q 15.484375 15.921875 20.484375 11.0625 
Q 25.484375 6.203125 34.421875 6.203125 
Q 39.59375 6.203125 44.453125 7.46875 
Q 49.3125 8.734375 54.109375 11.28125 
L 54.109375 2.78125 
Q 49.265625 0.734375 44.1875 -0.34375 
Q 39.109375 -1.421875 33.890625 -1.421875 
Q 20.796875 -1.421875 13.15625 6.1875 
Q 5.515625 13.8125 5.515625 26.8125 
Q 5.515625 40.234375 12.765625 48.109375 
Q 20.015625 56 32.328125 56 
Q 43.359375 56 49.78125 48.890625 
Q 56.203125 41.796875 56.203125 29.59375 
z
M 47.21875 32.234375 
Q 47.125 39.59375 43.09375 43.984375 
Q 39.0625 48.390625 32.421875 48.390625 
Q 24.90625 48.390625 20.390625 44.140625 
Q 15.875 39.890625 15.1875 32.171875 
z
" id="DejaVuSans-101"/>
      <path d="M 31 75.875 
Q 24.46875 64.65625 21.28125 53.65625 
Q 18.109375 42.671875 18.109375 31.390625 
Q 18.109375 20.125 21.3125 9.0625 
Q 24.515625 -2 31 -13.1875 
L 23.1875 -13.1875 
Q 15.875 -1.703125 12.234375 9.375 
Q 8.59375 20.453125 8.59375 31.390625 
Q 8.59375 42.28125 12.203125 53.3125 
Q 15.828125 64.359375 23.1875 75.875 
z
" id="DejaVuSans-40"/>
      <path d="M 9.078125 75.984375 
L 18.109375 75.984375 
L 18.109375 31.109375 
L 44.921875 54.6875 
L 56.390625 54.6875 
L 27.390625 29.109375 
L 57.625 0 
L 45.90625 0 
L 18.109375 26.703125 
L 18.109375 0 
L 9.078125 0 
z
" id="DejaVuSans-107"/>
      <path d="M 33.796875 -14.703125 
L 28.90625 -14.703125 
L 28.859375 0 
Q 23.734375 0.09375 18.609375 1.1875 
Q 13.484375 2.296875 8.296875 4.5 
L 8.296875 13.28125 
Q 13.28125 10.15625 18.375 8.5625 
Q 23.484375 6.984375 28.90625 6.9375 
L 28.90625 29.203125 
Q 18.109375 30.953125 13.203125 35.15625 
Q 8.296875 39.359375 8.296875 46.6875 
Q 8.296875 54.640625 13.625 59.21875 
Q 18.953125 63.8125 28.90625 64.5 
L 28.90625 75.984375 
L 33.796875 75.984375 
L 33.796875 64.65625 
Q 38.328125 64.453125 42.578125 63.6875 
Q 46.828125 62.9375 50.875 61.625 
L 50.875 53.078125 
Q 46.828125 55.125 42.546875 56.25 
Q 38.28125 57.375 33.796875 57.5625 
L 33.796875 36.71875 
Q 44.875 35.015625 50.09375 30.609375 
Q 55.328125 26.21875 55.328125 18.609375 
Q 55.328125 10.359375 49.78125 5.59375 
Q 44.234375 0.828125 33.796875 0.09375 
z
M 28.90625 37.59375 
L 28.90625 57.625 
Q 23.25 56.984375 20.265625 54.390625 
Q 17.28125 51.8125 17.28125 47.515625 
Q 17.28125 43.3125 20.03125 40.96875 
Q 22.796875 38.625 28.90625 37.59375 
z
M 33.796875 28.21875 
L 33.796875 7.078125 
Q 39.984375 7.90625 43.140625 10.59375 
Q 46.296875 13.28125 46.296875 17.671875 
Q 46.296875 21.96875 43.28125 24.5 
Q 40.28125 27.046875 33.796875 28.21875 
z
" id="DejaVuSans-36"/>
      <path d="M 8.015625 75.875 
L 15.828125 75.875 
Q 23.140625 64.359375 26.78125 53.3125 
Q 30.421875 42.28125 30.421875 31.390625 
Q 30.421875 20.453125 26.78125 9.375 
Q 23.140625 -1.703125 15.828125 -13.1875 
L 8.015625 -13.1875 
Q 14.5 -2 17.703125 9.0625 
Q 20.90625 20.125 20.90625 31.390625 
Q 20.90625 42.671875 17.703125 53.65625 
Q 14.5 64.65625 8.015625 75.875 
z
" id="DejaVuSans-41"/>
     </defs>
     <g transform="translate(362.748937 569.49475)scale(0.168 -0.168)">
      <use xlink:href="#DejaVuSans-65"/>
      <use x="68.408203" xlink:href="#DejaVuSans-110"/>
      <use x="131.787109" xlink:href="#DejaVuSans-110"/>
      <use x="195.166016" xlink:href="#DejaVuSans-117"/>
      <use x="258.544922" xlink:href="#DejaVuSans-97"/>
      <use x="319.824219" xlink:href="#DejaVuSans-108"/>
      <use x="347.607422" xlink:href="#DejaVuSans-32"/>
      <use x="379.394531" xlink:href="#DejaVuSans-73"/>
      <use x="408.886719" xlink:href="#DejaVuSans-110"/>
      <use x="472.265625" xlink:href="#DejaVuSans-99"/>
      <use x="527.246094" xlink:href="#DejaVuSans-111"/>
      <use x="588.427734" xlink:href="#DejaVuSans-109"/>
      <use x="685.839844" xlink:href="#DejaVuSans-101"/>
      <use x="747.363281" xlink:href="#DejaVuSans-32"/>
      <use x="779.150391" xlink:href="#DejaVuSans-40"/>
      <use x="818.164062" xlink:href="#DejaVuSans-107"/>
      <use x="876.074219" xlink:href="#DejaVuSans-36"/>
      <use x="939.697266" xlink:href="#DejaVuSans-41"/>
     </g>
    </g>
   </g>
   <g id="matplotlib.axis_2">
    <g id="ytick_1">
     <g id="line2d_8"/>
     <g id="text_9">
      <!-- 0 -->
      <g transform="translate(56.7125 524.075931)scale(0.14 -0.14)">
       <use xlink:href="#DejaVuSans-48"/>
      </g>
     </g>
    </g>
    <g id="ytick_2">
     <g id="line2d_9"/>
     <g id="text_10">
      <!-- 20 -->
      <g transform="translate(47.805 438.389981)scale(0.14 -0.14)">
       <use xlink:href="#DejaVuSans-50"/>
       <use x="63.623047" xlink:href="#DejaVuSans-48"/>
      </g>
     </g>
    </g>
    <g id="ytick_3">
     <g id="line2d_10"/>
     <g id="text_11">
      <!-- 40 -->
      <g transform="translate(47.805 352.70403)scale(0.14 -0.14)">
       <use xlink:href="#DejaVuSans-52"/>
       <use x="63.623047" xlink:href="#DejaVuSans-48"/>
      </g>
     </g>
    </g>
    <g id="ytick_4">
     <g id="line2d_11"/>
     <g id="text_12">
      <!-- 60 -->
      <g transform="translate(47.805 267.01808)scale(0.14 -0.14)">
       <use xlink:href="#DejaVuSans-54"/>
       <use x="63.623047" xlink:href="#DejaVuSans-48"/>
      </g>
     </g>
    </g>
    <g id="ytick_5">
     <g id="line2d_12"/>
     <g id="text_13">
      <!-- 80 -->
      <g transform="translate(47.805 181.332129)scale(0.14 -0.14)">
       <use xlink:href="#DejaVuSans-56"/>
       <use x="63.623047" xlink:href="#DejaVuSans-48"/>
      </g>
     </g>
    </g>
    <g id="ytick_6">
     <g id="line2d_13"/>
     <g id="text_14">
      <!-- 100 -->
      <g transform="translate(38.8975 95.646179)scale(0.14 -0.14)">
       <use xlink:href="#DejaVuSans-49"/>
       <use x="63.623047" xlink:href="#DejaVuSans-48"/>
       <use x="127.246094" xlink:href="#DejaVuSans-48"/>
      </g>
     </g>
    </g>
    <g id="text_15">
     <!-- Spending Score (1-100) -->
     <defs>
      <path d="M 53.515625 70.515625 
L 53.515625 60.890625 
Q 47.90625 63.578125 42.921875 64.890625 
Q 37.9375 66.21875 33.296875 66.21875 
Q 25.25 66.21875 20.875 63.09375 
Q 16.5 59.96875 16.5 54.203125 
Q 16.5 49.359375 19.40625 46.890625 
Q 22.3125 44.4375 30.421875 42.921875 
L 36.375 41.703125 
Q 47.40625 39.59375 52.65625 34.296875 
Q 57.90625 29 57.90625 20.125 
Q 57.90625 9.515625 50.796875 4.046875 
Q 43.703125 -1.421875 29.984375 -1.421875 
Q 24.8125 -1.421875 18.96875 -0.25 
Q 13.140625 0.921875 6.890625 3.21875 
L 6.890625 13.375 
Q 12.890625 10.015625 18.65625 8.296875 
Q 24.421875 6.59375 29.984375 6.59375 
Q 38.421875 6.59375 43.015625 9.90625 
Q 47.609375 13.234375 47.609375 19.390625 
Q 47.609375 24.75 44.3125 27.78125 
Q 41.015625 30.8125 33.5 32.328125 
L 27.484375 33.5 
Q 16.453125 35.6875 11.515625 40.375 
Q 6.59375 45.0625 6.59375 53.421875 
Q 6.59375 63.09375 13.40625 68.65625 
Q 20.21875 74.21875 32.171875 74.21875 
Q 37.3125 74.21875 42.625 73.28125 
Q 47.953125 72.359375 53.515625 70.515625 
z
" id="DejaVuSans-83"/>
      <path d="M 18.109375 8.203125 
L 18.109375 -20.796875 
L 9.078125 -20.796875 
L 9.078125 54.6875 
L 18.109375 54.6875 
L 18.109375 46.390625 
Q 20.953125 51.265625 25.265625 53.625 
Q 29.59375 56 35.59375 56 
Q 45.5625 56 51.78125 48.09375 
Q 58.015625 40.1875 58.015625 27.296875 
Q 58.015625 14.40625 51.78125 6.484375 
Q 45.5625 -1.421875 35.59375 -1.421875 
Q 29.59375 -1.421875 25.265625 0.953125 
Q 20.953125 3.328125 18.109375 8.203125 
z
M 48.6875 27.296875 
Q 48.6875 37.203125 44.609375 42.84375 
Q 40.53125 48.484375 33.40625 48.484375 
Q 26.265625 48.484375 22.1875 42.84375 
Q 18.109375 37.203125 18.109375 27.296875 
Q 18.109375 17.390625 22.1875 11.75 
Q 26.265625 6.109375 33.40625 6.109375 
Q 40.53125 6.109375 44.609375 11.75 
Q 48.6875 17.390625 48.6875 27.296875 
z
" id="DejaVuSans-112"/>
      <path d="M 45.40625 46.390625 
L 45.40625 75.984375 
L 54.390625 75.984375 
L 54.390625 0 
L 45.40625 0 
L 45.40625 8.203125 
Q 42.578125 3.328125 38.25 0.953125 
Q 33.9375 -1.421875 27.875 -1.421875 
Q 17.96875 -1.421875 11.734375 6.484375 
Q 5.515625 14.40625 5.515625 27.296875 
Q 5.515625 40.1875 11.734375 48.09375 
Q 17.96875 56 27.875 56 
Q 33.9375 56 38.25 53.625 
Q 42.578125 51.265625 45.40625 46.390625 
z
M 14.796875 27.296875 
Q 14.796875 17.390625 18.875 11.75 
Q 22.953125 6.109375 30.078125 6.109375 
Q 37.203125 6.109375 41.296875 11.75 
Q 45.40625 17.390625 45.40625 27.296875 
Q 45.40625 37.203125 41.296875 42.84375 
Q 37.203125 48.484375 30.078125 48.484375 
Q 22.953125 48.484375 18.875 42.84375 
Q 14.796875 37.203125 14.796875 27.296875 
z
" id="DejaVuSans-100"/>
      <path d="M 9.421875 54.6875 
L 18.40625 54.6875 
L 18.40625 0 
L 9.421875 0 
z
M 9.421875 75.984375 
L 18.40625 75.984375 
L 18.40625 64.59375 
L 9.421875 64.59375 
z
" id="DejaVuSans-105"/>
      <path d="M 45.40625 27.984375 
Q 45.40625 37.75 41.375 43.109375 
Q 37.359375 48.484375 30.078125 48.484375 
Q 22.859375 48.484375 18.828125 43.109375 
Q 14.796875 37.75 14.796875 27.984375 
Q 14.796875 18.265625 18.828125 12.890625 
Q 22.859375 7.515625 30.078125 7.515625 
Q 37.359375 7.515625 41.375 12.890625 
Q 45.40625 18.265625 45.40625 27.984375 
z
M 54.390625 6.78125 
Q 54.390625 -7.171875 48.1875 -13.984375 
Q 42 -20.796875 29.203125 -20.796875 
Q 24.46875 -20.796875 20.265625 -20.09375 
Q 16.0625 -19.390625 12.109375 -17.921875 
L 12.109375 -9.1875 
Q 16.0625 -11.328125 19.921875 -12.34375 
Q 23.78125 -13.375 27.78125 -13.375 
Q 36.625 -13.375 41.015625 -8.765625 
Q 45.40625 -4.15625 45.40625 5.171875 
L 45.40625 9.625 
Q 42.625 4.78125 38.28125 2.390625 
Q 33.9375 0 27.875 0 
Q 17.828125 0 11.671875 7.65625 
Q 5.515625 15.328125 5.515625 27.984375 
Q 5.515625 40.671875 11.671875 48.328125 
Q 17.828125 56 27.875 56 
Q 33.9375 56 38.28125 53.609375 
Q 42.625 51.21875 45.40625 46.390625 
L 45.40625 54.6875 
L 54.390625 54.6875 
z
" id="DejaVuSans-103"/>
      <path d="M 41.109375 46.296875 
Q 39.59375 47.171875 37.8125 47.578125 
Q 36.03125 48 33.890625 48 
Q 26.265625 48 22.1875 43.046875 
Q 18.109375 38.09375 18.109375 28.8125 
L 18.109375 0 
L 9.078125 0 
L 9.078125 54.6875 
L 18.109375 54.6875 
L 18.109375 46.1875 
Q 20.953125 51.171875 25.484375 53.578125 
Q 30.03125 56 36.53125 56 
Q 37.453125 56 38.578125 55.875 
Q 39.703125 55.765625 41.0625 55.515625 
z
" id="DejaVuSans-114"/>
      <path d="M 4.890625 31.390625 
L 31.203125 31.390625 
L 31.203125 23.390625 
L 4.890625 23.390625 
z
" id="DejaVuSans-45"/>
     </defs>
     <g transform="translate(31.403625 401.706375)rotate(-90)scale(0.168 -0.168)">
      <use xlink:href="#DejaVuSans-83"/>
      <use x="63.476562" xlink:href="#DejaVuSans-112"/>
      <use x="126.953125" xlink:href="#DejaVuSans-101"/>
      <use x="188.476562" xlink:href="#DejaVuSans-110"/>
      <use x="251.855469" xlink:href="#DejaVuSans-100"/>
      <use x="315.332031" xlink:href="#DejaVuSans-105"/>
      <use x="343.115234" xlink:href="#DejaVuSans-110"/>
      <use x="406.494141" xlink:href="#DejaVuSans-103"/>
      <use x="469.970703" xlink:href="#DejaVuSans-32"/>
      <use x="501.757812" xlink:href="#DejaVuSans-83"/>
      <use x="565.234375" xlink:href="#DejaVuSans-99"/>
      <use x="620.214844" xlink:href="#DejaVuSans-111"/>
      <use x="681.396484" xlink:href="#DejaVuSans-114"/>
      <use x="720.259766" xlink:href="#DejaVuSans-101"/>
      <use x="781.783203" xlink:href="#DejaVuSans-32"/>
      <use x="813.570312" xlink:href="#DejaVuSans-40"/>
      <use x="852.583984" xlink:href="#DejaVuSans-49"/>
      <use x="916.207031" xlink:href="#DejaVuSans-45"/>
      <use x="952.291016" xlink:href="#DejaVuSans-49"/>
      <use x="1015.914062" xlink:href="#DejaVuSans-48"/>
      <use x="1079.537109" xlink:href="#DejaVuSans-48"/>
      <use x="1143.160156" xlink:href="#DejaVuSans-41"/>
     </g>
    </g>
   </g>
   <g id="PathCollection_1">
    <defs>
     <path d="M 0 -1.936492 
L -1.677051 -0.968246 
L -1.677051 0.968246 
L -0 1.936492 
L 1.677051 0.968246 
L 1.677051 -0.968246 
z
" id="m37841ebcc5" style="stroke:#6186c7;stroke-width:0.5;"/>
    </defs>
    <g clip-path="url(#pab536567b8)">
     <use style="fill:#6186c7;stroke:#6186c7;stroke-width:0.5;" x="187.305156" xlink:href="#m37841ebcc5" y="98.895868"/>
     <use style="fill:#6186c7;stroke:#6186c7;stroke-width:0.5;" x="142.495618" xlink:href="#m37841ebcc5" y="124.601653"/>
     <use style="fill:#6186c7;stroke:#6186c7;stroke-width:0.5;" x="215.311118" xlink:href="#m37841ebcc5" y="141.738843"/>
     <use style="fill:#6186c7;stroke:#6186c7;stroke-width:0.5;" x="103.287273" xlink:href="#m37841ebcc5" y="184.581818"/>
     <use style="fill:#6186c7;stroke:#6186c7;stroke-width:0.5;" x="192.906349" xlink:href="#m37841ebcc5" y="163.160331"/>
     <use style="fill:#6186c7;stroke:#6186c7;stroke-width:0.5;" x="293.727809" xlink:href="#m37841ebcc5" y="124.601653"/>
     <use style="fill:#6186c7;stroke:#6186c7;stroke-width:0.5;" x="271.32304" xlink:href="#m37841ebcc5" y="244.561983"/>
     <use style="fill:#6186c7;stroke:#6186c7;stroke-width:0.5;" x="164.900387" xlink:href="#m37841ebcc5" y="184.581818"/>
     <use style="fill:#6186c7;stroke:#6186c7;stroke-width:0.5;" x="164.900387" xlink:href="#m37841ebcc5" y="107.464463"/>
     <use style="fill:#6186c7;stroke:#6186c7;stroke-width:0.5;" x="103.287273" xlink:href="#m37841ebcc5" y="116.033058"/>
     <use style="fill:#6186c7;stroke:#6186c7;stroke-width:0.5;" x="103.287273" xlink:href="#m37841ebcc5" y="206.003306"/>
     <use style="fill:#6186c7;stroke:#6186c7;stroke-width:0.5;" x="220.91231" xlink:href="#m37841ebcc5" y="197.434711"/>
     <use style="fill:#6186c7;stroke:#6186c7;stroke-width:0.5;" x="220.91231" xlink:href="#m37841ebcc5" y="94.61157"/>
     <use style="fill:#6186c7;stroke:#6186c7;stroke-width:0.5;" x="260.120656" xlink:href="#m37841ebcc5" y="167.444628"/>
     <use style="fill:#6186c7;stroke:#6186c7;stroke-width:0.5;" x="220.91231" xlink:href="#m37841ebcc5" y="90.327273"/>
     <use style="fill:#6186c7;stroke:#6186c7;stroke-width:0.5;" x="114.489657" xlink:href="#m37841ebcc5" y="184.581818"/>
     <use style="fill:#6186c7;stroke:#6186c7;stroke-width:0.5;" x="153.698003" xlink:href="#m37841ebcc5" y="158.876033"/>
     <use style="fill:#6186c7;stroke:#6186c7;stroke-width:0.5;" x="120.090849" xlink:href="#m37841ebcc5" y="124.601653"/>
     <use style="fill:#6186c7;stroke:#6186c7;stroke-width:0.5;" x="108.888465" xlink:href="#m37841ebcc5" y="107.464463"/>
     <use style="fill:#6186c7;stroke:#6186c7;stroke-width:0.5;" x="265.721848" xlink:href="#m37841ebcc5" y="116.033058"/>
     <use style="fill:#6186c7;stroke:#6186c7;stroke-width:0.5;" x="114.489657" xlink:href="#m37841ebcc5" y="176.013223"/>
    </g>
   </g>
   <g id="PathCollection_2">
    <defs>
     <path d="M 0 -1.936492 
L -1.677051 -0.968246 
L -1.677051 0.968246 
L -0 1.936492 
L 1.677051 0.968246 
L 1.677051 -0.968246 
z
" id="m93443c1247" style="stroke:#19a9b7;stroke-width:0.5;"/>
    </defs>
    <g clip-path="url(#pab536567b8)">
     <use style="fill:#19a9b7;stroke:#19a9b7;stroke-width:0.5;" x="428.156423" xlink:href="#m93443c1247" y="445.923967"/>
     <use style="fill:#19a9b7;stroke:#19a9b7;stroke-width:0.5;" x="652.204113" xlink:href="#m93443c1247" y="441.639669"/>
     <use style="fill:#19a9b7;stroke:#19a9b7;stroke-width:0.5;" x="478.567154" xlink:href="#m93443c1247" y="433.071074"/>
     <use style="fill:#19a9b7;stroke:#19a9b7;stroke-width:0.5;" x="584.989806" xlink:href="#m93443c1247" y="493.05124"/>
     <use style="fill:#19a9b7;stroke:#19a9b7;stroke-width:0.5;" x="764.227958" xlink:href="#m93443c1247" y="463.061157"/>
     <use style="fill:#19a9b7;stroke:#19a9b7;stroke-width:0.5;" x="562.585037" xlink:href="#m93443c1247" y="381.659504"/>
     <use style="fill:#19a9b7;stroke:#19a9b7;stroke-width:0.5;" x="769.829151" xlink:href="#m93443c1247" y="514.472727"/>
     <use style="fill:#19a9b7;stroke:#19a9b7;stroke-width:0.5;" x="618.59696" xlink:href="#m93443c1247" y="514.472727"/>
     <use style="fill:#19a9b7;stroke:#19a9b7;stroke-width:0.5;" x="730.620805" xlink:href="#m93443c1247" y="420.218182"/>
     <use style="fill:#19a9b7;stroke:#19a9b7;stroke-width:0.5;" x="590.590999" xlink:href="#m93443c1247" y="510.18843"/>
     <use style="fill:#19a9b7;stroke:#19a9b7;stroke-width:0.5;" x="758.626766" xlink:href="#m93443c1247" y="445.923967"/>
     <use style="fill:#19a9b7;stroke:#19a9b7;stroke-width:0.5;" x="719.41842" xlink:href="#m93443c1247" y="480.198347"/>
     <use style="fill:#19a9b7;stroke:#19a9b7;stroke-width:0.5;" x="635.400537" xlink:href="#m93443c1247" y="407.365289"/>
     <use style="fill:#19a9b7;stroke:#19a9b7;stroke-width:0.5;" x="635.400537" xlink:href="#m93443c1247" y="360.238017"/>
     <use style="fill:#19a9b7;stroke:#19a9b7;stroke-width:0.5;" x="601.793383" xlink:href="#m93443c1247" y="488.766942"/>
     <use style="fill:#19a9b7;stroke:#19a9b7;stroke-width:0.5;" x="506.573115" xlink:href="#m93443c1247" y="343.100826"/>
     <use style="fill:#19a9b7;stroke:#19a9b7;stroke-width:0.5;" x="472.965961" xlink:href="#m93443c1247" y="467.345455"/>
     <use style="fill:#19a9b7;stroke:#19a9b7;stroke-width:0.5;" x="444.96" xlink:href="#m93443c1247" y="480.198347"/>
     <use style="fill:#19a9b7;stroke:#19a9b7;stroke-width:0.5;" x="545.781461" xlink:href="#m93443c1247" y="484.482645"/>
     <use style="fill:#19a9b7;stroke:#19a9b7;stroke-width:0.5;" x="680.210075" xlink:href="#m93443c1247" y="493.05124"/>
     <use style="fill:#19a9b7;stroke:#19a9b7;stroke-width:0.5;" x="461.763577" xlink:href="#m93443c1247" y="510.18843"/>
     <use style="fill:#19a9b7;stroke:#19a9b7;stroke-width:0.5;" x="556.983845" xlink:href="#m93443c1247" y="343.100826"/>
     <use style="fill:#19a9b7;stroke:#19a9b7;stroke-width:0.5;" x="551.382653" xlink:href="#m93443c1247" y="428.786777"/>
     <use style="fill:#19a9b7;stroke:#19a9b7;stroke-width:0.5;" x="472.965961" xlink:href="#m93443c1247" y="381.659504"/>
     <use style="fill:#19a9b7;stroke:#19a9b7;stroke-width:0.5;" x="769.829151" xlink:href="#m93443c1247" y="463.061157"/>
     <use style="fill:#19a9b7;stroke:#19a9b7;stroke-width:0.5;" x="629.799344" xlink:href="#m93443c1247" y="441.639669"/>
     <use style="fill:#19a9b7;stroke:#19a9b7;stroke-width:0.5;" x="523.376692" xlink:href="#m93443c1247" y="488.766942"/>
     <use style="fill:#19a9b7;stroke:#19a9b7;stroke-width:0.5;" x="556.983845" xlink:href="#m93443c1247" y="475.91405"/>
     <use style="fill:#19a9b7;stroke:#19a9b7;stroke-width:0.5;" x="579.388614" xlink:href="#m93443c1247" y="420.218182"/>
     <use style="fill:#19a9b7;stroke:#19a9b7;stroke-width:0.5;" x="708.216036" xlink:href="#m93443c1247" y="403.080992"/>
     <use style="fill:#19a9b7;stroke:#19a9b7;stroke-width:0.5;" x="691.412459" xlink:href="#m93443c1247" y="493.05124"/>
     <use style="fill:#19a9b7;stroke:#19a9b7;stroke-width:0.5;" x="534.579076" xlink:href="#m93443c1247" y="437.355372"/>
     <use style="fill:#19a9b7;stroke:#19a9b7;stroke-width:0.5;" x="641.001729" xlink:href="#m93443c1247" y="420.218182"/>
     <use style="fill:#19a9b7;stroke:#19a9b7;stroke-width:0.5;" x="461.763577" xlink:href="#m93443c1247" y="360.238017"/>
     <use style="fill:#19a9b7;stroke:#19a9b7;stroke-width:0.5;" x="612.995768" xlink:href="#m93443c1247" y="343.100826"/>
     <use style="fill:#19a9b7;stroke:#19a9b7;stroke-width:0.5;" x="708.216036" xlink:href="#m93443c1247" y="368.806612"/>
     <use style="fill:#19a9b7;stroke:#19a9b7;stroke-width:0.5;" x="708.216036" xlink:href="#m93443c1247" y="505.904132"/>
     <use style="fill:#19a9b7;stroke:#19a9b7;stroke-width:0.5;" x="691.412459" xlink:href="#m93443c1247" y="514.472727"/>
     <use style="fill:#19a9b7;stroke:#19a9b7;stroke-width:0.5;" x="584.989806" xlink:href="#m93443c1247" y="317.395041"/>
     <use style="fill:#19a9b7;stroke:#19a9b7;stroke-width:0.5;" x="624.198152" xlink:href="#m93443c1247" y="368.806612"/>
     <use style="fill:#19a9b7;stroke:#19a9b7;stroke-width:0.5;" x="489.769538" xlink:href="#m93443c1247" y="415.933884"/>
     <use style="fill:#19a9b7;stroke:#19a9b7;stroke-width:0.5;" x="747.424382" xlink:href="#m93443c1247" y="407.365289"/>
     <use style="fill:#19a9b7;stroke:#19a9b7;stroke-width:0.5;" x="618.59696" xlink:href="#m93443c1247" y="355.953719"/>
     <use style="fill:#19a9b7;stroke:#19a9b7;stroke-width:0.5;" x="607.394575" xlink:href="#m93443c1247" y="351.669421"/>
     <use style="fill:#19a9b7;stroke:#19a9b7;stroke-width:0.5;" x="753.025574" xlink:href="#m93443c1247" y="364.522314"/>
     <use style="fill:#19a9b7;stroke:#19a9b7;stroke-width:0.5;" x="556.983845" xlink:href="#m93443c1247" y="407.365289"/>
     <use style="fill:#19a9b7;stroke:#19a9b7;stroke-width:0.5;" x="719.41842" xlink:href="#m93443c1247" y="463.061157"/>
    </g>
   </g>
   <g id="PathCollection_3">
    <defs>
     <path d="M 0 -1.936492 
L -1.677051 -0.968246 
L -1.677051 0.968246 
L -0 1.936492 
L 1.677051 0.968246 
L 1.677051 -0.968246 
z
" id="md05672d2c7" style="stroke:#51c669;stroke-width:0.5;"/>
    </defs>
    <g clip-path="url(#pab536567b8)">
     <use style="fill:#51c669;stroke:#51c669;stroke-width:0.5;" x="114.489657" xlink:href="#md05672d2c7" y="394.512397"/>
     <use style="fill:#51c669;stroke:#51c669;stroke-width:0.5;" x="372.144501" xlink:href="#md05672d2c7" y="325.963636"/>
     <use style="fill:#51c669;stroke:#51c669;stroke-width:0.5;" x="327.334963" xlink:href="#md05672d2c7" y="360.238017"/>
     <use style="fill:#51c669;stroke:#51c669;stroke-width:0.5;" x="120.090849" xlink:href="#md05672d2c7" y="458.77686"/>
     <use style="fill:#51c669;stroke:#51c669;stroke-width:0.5;" x="192.906349" xlink:href="#md05672d2c7" y="343.100826"/>
     <use style="fill:#51c669;stroke:#51c669;stroke-width:0.5;" x="108.888465" xlink:href="#md05672d2c7" y="424.502479"/>
     <use style="fill:#51c669;stroke:#51c669;stroke-width:0.5;" x="232.114694" xlink:href="#md05672d2c7" y="445.923967"/>
     <use style="fill:#51c669;stroke:#51c669;stroke-width:0.5;" x="304.930194" xlink:href="#md05672d2c7" y="398.796694"/>
     <use style="fill:#51c669;stroke:#51c669;stroke-width:0.5;" x="304.930194" xlink:href="#md05672d2c7" y="364.522314"/>
     <use style="fill:#51c669;stroke:#51c669;stroke-width:0.5;" x="304.930194" xlink:href="#md05672d2c7" y="480.198347"/>
     <use style="fill:#51c669;stroke:#51c669;stroke-width:0.5;" x="232.114694" xlink:href="#md05672d2c7" y="364.522314"/>
     <use style="fill:#51c669;stroke:#51c669;stroke-width:0.5;" x="204.108733" xlink:href="#md05672d2c7" y="471.629752"/>
     <use style="fill:#51c669;stroke:#51c669;stroke-width:0.5;" x="170.50158" xlink:href="#md05672d2c7" y="424.502479"/>
     <use style="fill:#51c669;stroke:#51c669;stroke-width:0.5;" x="411.352846" xlink:href="#md05672d2c7" y="475.91405"/>
     <use style="fill:#51c669;stroke:#51c669;stroke-width:0.5;" x="355.340924" xlink:href="#md05672d2c7" y="355.953719"/>
     <use style="fill:#51c669;stroke:#51c669;stroke-width:0.5;" x="120.090849" xlink:href="#md05672d2c7" y="467.345455"/>
     <use style="fill:#51c669;stroke:#51c669;stroke-width:0.5;" x="159.299195" xlink:href="#md05672d2c7" y="321.679339"/>
     <use style="fill:#51c669;stroke:#51c669;stroke-width:0.5;" x="237.715887" xlink:href="#md05672d2c7" y="373.090909"/>
     <use style="fill:#51c669;stroke:#51c669;stroke-width:0.5;" x="176.102772" xlink:href="#md05672d2c7" y="411.649587"/>
     <use style="fill:#51c669;stroke:#51c669;stroke-width:0.5;" x="265.721848" xlink:href="#md05672d2c7" y="334.532231"/>
     <use style="fill:#51c669;stroke:#51c669;stroke-width:0.5;" x="226.513502" xlink:href="#md05672d2c7" y="283.120661"/>
     <use style="fill:#51c669;stroke:#51c669;stroke-width:0.5;" x="243.317079" xlink:href="#md05672d2c7" y="411.649587"/>
     <use style="fill:#51c669;stroke:#51c669;stroke-width:0.5;" x="103.287273" xlink:href="#md05672d2c7" y="385.943802"/>
     <use style="fill:#51c669;stroke:#51c669;stroke-width:0.5;" x="372.144501" xlink:href="#md05672d2c7" y="334.532231"/>
     <use style="fill:#51c669;stroke:#51c669;stroke-width:0.5;" x="383.346885" xlink:href="#md05672d2c7" y="407.365289"/>
     <use style="fill:#51c669;stroke:#51c669;stroke-width:0.5;" x="159.299195" xlink:href="#md05672d2c7" y="488.766942"/>
     <use style="fill:#51c669;stroke:#51c669;stroke-width:0.5;" x="131.293234" xlink:href="#md05672d2c7" y="433.071074"/>
     <use style="fill:#51c669;stroke:#51c669;stroke-width:0.5;" x="131.293234" xlink:href="#md05672d2c7" y="385.943802"/>
     <use style="fill:#51c669;stroke:#51c669;stroke-width:0.5;" x="304.930194" xlink:href="#md05672d2c7" y="360.238017"/>
     <use style="fill:#51c669;stroke:#51c669;stroke-width:0.5;" x="405.751654" xlink:href="#md05672d2c7" y="428.786777"/>
     <use style="fill:#51c669;stroke:#51c669;stroke-width:0.5;" x="254.519463" xlink:href="#md05672d2c7" y="278.836364"/>
     <use style="fill:#51c669;stroke:#51c669;stroke-width:0.5;" x="170.50158" xlink:href="#md05672d2c7" y="351.669421"/>
     <use style="fill:#51c669;stroke:#51c669;stroke-width:0.5;" x="321.73377" xlink:href="#md05672d2c7" y="415.933884"/>
     <use style="fill:#51c669;stroke:#51c669;stroke-width:0.5;" x="383.346885" xlink:href="#md05672d2c7" y="347.385124"/>
     <use style="fill:#51c669;stroke:#51c669;stroke-width:0.5;" x="142.495618" xlink:href="#md05672d2c7" y="360.238017"/>
     <use style="fill:#51c669;stroke:#51c669;stroke-width:0.5;" x="327.334963" xlink:href="#md05672d2c7" y="420.218182"/>
     <use style="fill:#51c669;stroke:#51c669;stroke-width:0.5;" x="142.495618" xlink:href="#md05672d2c7" y="390.228099"/>
     <use style="fill:#51c669;stroke:#51c669;stroke-width:0.5;" x="327.334963" xlink:href="#md05672d2c7" y="334.532231"/>
     <use style="fill:#51c669;stroke:#51c669;stroke-width:0.5;" x="164.900387" xlink:href="#md05672d2c7" y="407.365289"/>
     <use style="fill:#51c669;stroke:#51c669;stroke-width:0.5;" x="271.32304" xlink:href="#md05672d2c7" y="355.953719"/>
     <use style="fill:#51c669;stroke:#51c669;stroke-width:0.5;" x="136.894426" xlink:href="#md05672d2c7" y="441.639669"/>
     <use style="fill:#51c669;stroke:#51c669;stroke-width:0.5;" x="394.54927" xlink:href="#md05672d2c7" y="424.502479"/>
     <use style="fill:#51c669;stroke:#51c669;stroke-width:0.5;" x="209.709925" xlink:href="#md05672d2c7" y="338.816529"/>
     <use style="fill:#51c669;stroke:#51c669;stroke-width:0.5;" x="159.299195" xlink:href="#md05672d2c7" y="325.963636"/>
     <use style="fill:#51c669;stroke:#51c669;stroke-width:0.5;" x="316.132578" xlink:href="#md05672d2c7" y="450.208264"/>
     <use style="fill:#51c669;stroke:#51c669;stroke-width:0.5;" x="282.525425" xlink:href="#md05672d2c7" y="420.218182"/>
     <use style="fill:#51c669;stroke:#51c669;stroke-width:0.5;" x="360.942116" xlink:href="#md05672d2c7" y="381.659504"/>
     <use style="fill:#51c669;stroke:#51c669;stroke-width:0.5;" x="159.299195" xlink:href="#md05672d2c7" y="308.826446"/>
    </g>
   </g>
   <g id="PathCollection_4">
    <defs>
     <path d="M 0 -1.936492 
L -1.677051 -0.968246 
L -1.677051 0.968246 
L -0 1.936492 
L 1.677051 0.968246 
L 1.677051 -0.968246 
z
" id="m1a49761468" style="stroke:#2771e2;stroke-width:0.5;"/>
    </defs>
    <g clip-path="url(#pab536567b8)">
     <use style="fill:#2771e2;stroke:#2771e2;stroke-width:0.5;" x="685.811267" xlink:href="#m1a49761468" y="248.846281"/>
     <use style="fill:#2771e2;stroke:#2771e2;stroke-width:0.5;" x="758.626766" xlink:href="#m1a49761468" y="150.307438"/>
     <use style="fill:#2771e2;stroke:#2771e2;stroke-width:0.5;" x="680.210075" xlink:href="#m1a49761468" y="235.993388"/>
     <use style="fill:#2771e2;stroke:#2771e2;stroke-width:0.5;" x="685.811267" xlink:href="#m1a49761468" y="94.61157"/>
     <use style="fill:#2771e2;stroke:#2771e2;stroke-width:0.5;" x="663.406498" xlink:href="#m1a49761468" y="120.317355"/>
     <use style="fill:#2771e2;stroke:#2771e2;stroke-width:0.5;" x="730.620805" xlink:href="#m1a49761468" y="223.140496"/>
     <use style="fill:#2771e2;stroke:#2771e2;stroke-width:0.5;" x="758.626766" xlink:href="#m1a49761468" y="287.404959"/>
     <use style="fill:#2771e2;stroke:#2771e2;stroke-width:0.5;" x="713.817228" xlink:href="#m1a49761468" y="120.317355"/>
     <use style="fill:#2771e2;stroke:#2771e2;stroke-width:0.5;" x="736.221997" xlink:href="#m1a49761468" y="321.679339"/>
     <use style="fill:#2771e2;stroke:#2771e2;stroke-width:0.5;" x="741.823189" xlink:href="#m1a49761468" y="325.963636"/>
     <use style="fill:#2771e2;stroke:#2771e2;stroke-width:0.5;" x="730.620805" xlink:href="#m1a49761468" y="103.180165"/>
     <use style="fill:#2771e2;stroke:#2771e2;stroke-width:0.5;" x="607.394575" xlink:href="#m1a49761468" y="287.404959"/>
     <use style="fill:#2771e2;stroke:#2771e2;stroke-width:0.5;" x="758.626766" xlink:href="#m1a49761468" y="218.856198"/>
     <use style="fill:#2771e2;stroke:#2771e2;stroke-width:0.5;" x="775.430343" xlink:href="#m1a49761468" y="334.532231"/>
     <use style="fill:#2771e2;stroke:#2771e2;stroke-width:0.5;" x="590.590999" xlink:href="#m1a49761468" y="163.160331"/>
     <use style="fill:#2771e2;stroke:#2771e2;stroke-width:0.5;" x="741.823189" xlink:href="#m1a49761468" y="158.876033"/>
     <use style="fill:#2771e2;stroke:#2771e2;stroke-width:0.5;" x="646.602921" xlink:href="#m1a49761468" y="248.846281"/>
     <use style="fill:#2771e2;stroke:#2771e2;stroke-width:0.5;" x="691.412459" xlink:href="#m1a49761468" y="218.856198"/>
     <use style="fill:#2771e2;stroke:#2771e2;stroke-width:0.5;" x="786.632727" xlink:href="#m1a49761468" y="240.277686"/>
     <use style="fill:#2771e2;stroke:#2771e2;stroke-width:0.5;" x="697.013651" xlink:href="#m1a49761468" y="283.120661"/>
     <use style="fill:#2771e2;stroke:#2771e2;stroke-width:0.5;" x="584.989806" xlink:href="#m1a49761468" y="94.61157"/>
     <use style="fill:#2771e2;stroke:#2771e2;stroke-width:0.5;" x="607.394575" xlink:href="#m1a49761468" y="278.836364"/>
     <use style="fill:#2771e2;stroke:#2771e2;stroke-width:0.5;" x="629.799344" xlink:href="#m1a49761468" y="176.013223"/>
     <use style="fill:#2771e2;stroke:#2771e2;stroke-width:0.5;" x="753.025574" xlink:href="#m1a49761468" y="304.542149"/>
     <use style="fill:#2771e2;stroke:#2771e2;stroke-width:0.5;" x="747.424382" xlink:href="#m1a49761468" y="330.247934"/>
     <use style="fill:#2771e2;stroke:#2771e2;stroke-width:0.5;" x="775.430343" xlink:href="#m1a49761468" y="197.434711"/>
     <use style="fill:#2771e2;stroke:#2771e2;stroke-width:0.5;" x="646.602921" xlink:href="#m1a49761468" y="150.307438"/>
     <use style="fill:#2771e2;stroke:#2771e2;stroke-width:0.5;" x="584.989806" xlink:href="#m1a49761468" y="274.552066"/>
     <use style="fill:#2771e2;stroke:#2771e2;stroke-width:0.5;" x="612.995768" xlink:href="#m1a49761468" y="244.561983"/>
     <use style="fill:#2771e2;stroke:#2771e2;stroke-width:0.5;" x="719.41842" xlink:href="#m1a49761468" y="304.542149"/>
     <use style="fill:#2771e2;stroke:#2771e2;stroke-width:0.5;" x="725.019613" xlink:href="#m1a49761468" y="287.404959"/>
     <use style="fill:#2771e2;stroke:#2771e2;stroke-width:0.5;" x="764.227958" xlink:href="#m1a49761468" y="265.983471"/>
     <use style="fill:#2771e2;stroke:#2771e2;stroke-width:0.5;" x="719.41842" xlink:href="#m1a49761468" y="158.876033"/>
     <use style="fill:#2771e2;stroke:#2771e2;stroke-width:0.5;" x="641.001729" xlink:href="#m1a49761468" y="235.993388"/>
     <use style="fill:#2771e2;stroke:#2771e2;stroke-width:0.5;" x="730.620805" xlink:href="#m1a49761468" y="133.170248"/>
     <use style="fill:#2771e2;stroke:#2771e2;stroke-width:0.5;" x="663.406498" xlink:href="#m1a49761468" y="201.719008"/>
     <use style="fill:#2771e2;stroke:#2771e2;stroke-width:0.5;" x="719.41842" xlink:href="#m1a49761468" y="188.866116"/>
     <use style="fill:#2771e2;stroke:#2771e2;stroke-width:0.5;" x="753.025574" xlink:href="#m1a49761468" y="218.856198"/>
     <use style="fill:#2771e2;stroke:#2771e2;stroke-width:0.5;" x="663.406498" xlink:href="#m1a49761468" y="146.02314"/>
    </g>
   </g>
   <g id="PathCollection_5">
    <defs>
     <path d="M 0 -1.936492 
L -1.677051 -0.968246 
L -1.677051 0.968246 
L -0 1.936492 
L 1.677051 0.968246 
L 1.677051 -0.968246 
z
" id="m0b767fcf1e" style="stroke:#e1819d;stroke-width:0.5;"/>
    </defs>
    <g clip-path="url(#pab536567b8)">
     <use style="fill:#e1819d;stroke:#e1819d;stroke-width:0.5;" x="439.358808" xlink:href="#m0b767fcf1e" y="287.404959"/>
     <use style="fill:#e1819d;stroke:#e1819d;stroke-width:0.5;" x="355.340924" xlink:href="#m0b767fcf1e" y="218.856198"/>
     <use style="fill:#e1819d;stroke:#e1819d;stroke-width:0.5;" x="338.537347" xlink:href="#m0b767fcf1e" y="278.836364"/>
     <use style="fill:#e1819d;stroke:#e1819d;stroke-width:0.5;" x="500.971923" xlink:href="#m0b767fcf1e" y="270.267769"/>
     <use style="fill:#e1819d;stroke:#e1819d;stroke-width:0.5;" x="472.965961" xlink:href="#m0b767fcf1e" y="313.110744"/>
     <use style="fill:#e1819d;stroke:#e1819d;stroke-width:0.5;" x="556.983845" xlink:href="#m0b767fcf1e" y="103.180165"/>
     <use style="fill:#e1819d;stroke:#e1819d;stroke-width:0.5;" x="472.965961" xlink:href="#m0b767fcf1e" y="116.033058"/>
     <use style="fill:#e1819d;stroke:#e1819d;stroke-width:0.5;" x="422.555231" xlink:href="#m0b767fcf1e" y="338.816529"/>
     <use style="fill:#e1819d;stroke:#e1819d;stroke-width:0.5;" x="506.573115" xlink:href="#m0b767fcf1e" y="124.601653"/>
     <use style="fill:#e1819d;stroke:#e1819d;stroke-width:0.5;" x="377.745693" xlink:href="#m0b767fcf1e" y="253.130579"/>
     <use style="fill:#e1819d;stroke:#e1819d;stroke-width:0.5;" x="523.376692" xlink:href="#m0b767fcf1e" y="103.180165"/>
     <use style="fill:#e1819d;stroke:#e1819d;stroke-width:0.5;" x="472.965961" xlink:href="#m0b767fcf1e" y="304.542149"/>
     <use style="fill:#e1819d;stroke:#e1819d;stroke-width:0.5;" x="545.781461" xlink:href="#m0b767fcf1e" y="214.571901"/>
     <use style="fill:#e1819d;stroke:#e1819d;stroke-width:0.5;" x="310.531386" xlink:href="#m0b767fcf1e" y="261.699174"/>
     <use style="fill:#e1819d;stroke:#e1819d;stroke-width:0.5;" x="439.358808" xlink:href="#m0b767fcf1e" y="116.033058"/>
     <use style="fill:#e1819d;stroke:#e1819d;stroke-width:0.5;" x="523.376692" xlink:href="#m0b767fcf1e" y="223.140496"/>
     <use style="fill:#e1819d;stroke:#e1819d;stroke-width:0.5;" x="383.346885" xlink:href="#m0b767fcf1e" y="265.983471"/>
     <use style="fill:#e1819d;stroke:#e1819d;stroke-width:0.5;" x="450.561192" xlink:href="#m0b767fcf1e" y="176.013223"/>
     <use style="fill:#e1819d;stroke:#e1819d;stroke-width:0.5;" x="411.352846" xlink:href="#m0b767fcf1e" y="94.61157"/>
     <use style="fill:#e1819d;stroke:#e1819d;stroke-width:0.5;" x="444.96" xlink:href="#m0b767fcf1e" y="325.963636"/>
     <use style="fill:#e1819d;stroke:#e1819d;stroke-width:0.5;" x="422.555231" xlink:href="#m0b767fcf1e" y="201.719008"/>
     <use style="fill:#e1819d;stroke:#e1819d;stroke-width:0.5;" x="377.745693" xlink:href="#m0b767fcf1e" y="137.454545"/>
     <use style="fill:#e1819d;stroke:#e1819d;stroke-width:0.5;" x="478.567154" xlink:href="#m0b767fcf1e" y="146.02314"/>
     <use style="fill:#e1819d;stroke:#e1819d;stroke-width:0.5;" x="456.162385" xlink:href="#m0b767fcf1e" y="283.120661"/>
     <use style="fill:#e1819d;stroke:#e1819d;stroke-width:0.5;" x="327.334963" xlink:href="#m0b767fcf1e" y="206.003306"/>
     <use style="fill:#e1819d;stroke:#e1819d;stroke-width:0.5;" x="422.555231" xlink:href="#m0b767fcf1e" y="300.257851"/>
     <use style="fill:#e1819d;stroke:#e1819d;stroke-width:0.5;" x="316.132578" xlink:href="#m0b767fcf1e" y="231.709091"/>
     <use style="fill:#e1819d;stroke:#e1819d;stroke-width:0.5;" x="416.954039" xlink:href="#m0b767fcf1e" y="227.424793"/>
     <use style="fill:#e1819d;stroke:#e1819d;stroke-width:0.5;" x="332.936155" xlink:href="#m0b767fcf1e" y="206.003306"/>
     <use style="fill:#e1819d;stroke:#e1819d;stroke-width:0.5;" x="416.954039" xlink:href="#m0b767fcf1e" y="180.297521"/>
     <use style="fill:#e1819d;stroke:#e1819d;stroke-width:0.5;" x="433.757615" xlink:href="#m0b767fcf1e" y="158.876033"/>
     <use style="fill:#e1819d;stroke:#e1819d;stroke-width:0.5;" x="388.948077" xlink:href="#m0b767fcf1e" y="146.02314"/>
     <use style="fill:#e1819d;stroke:#e1819d;stroke-width:0.5;" x="444.96" xlink:href="#m0b767fcf1e" y="197.434711"/>
     <use style="fill:#e1819d;stroke:#e1819d;stroke-width:0.5;" x="304.930194" xlink:href="#m0b767fcf1e" y="257.414876"/>
     <use style="fill:#e1819d;stroke:#e1819d;stroke-width:0.5;" x="394.54927" xlink:href="#m0b767fcf1e" y="116.033058"/>
     <use style="fill:#e1819d;stroke:#e1819d;stroke-width:0.5;" x="528.977884" xlink:href="#m0b767fcf1e" y="206.003306"/>
     <use style="fill:#e1819d;stroke:#e1819d;stroke-width:0.5;" x="528.977884" xlink:href="#m0b767fcf1e" y="154.591736"/>
     <use style="fill:#e1819d;stroke:#e1819d;stroke-width:0.5;" x="444.96" xlink:href="#m0b767fcf1e" y="154.591736"/>
     <use style="fill:#e1819d;stroke:#e1819d;stroke-width:0.5;" x="512.174307" xlink:href="#m0b767fcf1e" y="227.424793"/>
     <use style="fill:#e1819d;stroke:#e1819d;stroke-width:0.5;" x="495.37073" xlink:href="#m0b767fcf1e" y="223.140496"/>
     <use style="fill:#e1819d;stroke:#e1819d;stroke-width:0.5;" x="439.358808" xlink:href="#m0b767fcf1e" y="295.973554"/>
     <use style="fill:#e1819d;stroke:#e1819d;stroke-width:0.5;" x="461.763577" xlink:href="#m0b767fcf1e" y="188.866116"/>
     <use style="fill:#e1819d;stroke:#e1819d;stroke-width:0.5;" x="517.775499" xlink:href="#m0b767fcf1e" y="90.327273"/>
     <use style="fill:#e1819d;stroke:#e1819d;stroke-width:0.5;" x="422.555231" xlink:href="#m0b767fcf1e" y="227.424793"/>
     <use style="fill:#e1819d;stroke:#e1819d;stroke-width:0.5;" x="506.573115" xlink:href="#m0b767fcf1e" y="158.876033"/>
    </g>
   </g>
   <g id="PathCollection_6">
    <defs>
     <path d="M 0 -5 
L -1.12257 -1.545085 
L -4.755283 -1.545085 
L -1.816356 0.59017 
L -2.938926 4.045085 
L -0 1.90983 
L 2.938926 4.045085 
L 1.816356 0.59017 
L 4.755283 -1.545085 
L 1.12257 -1.545085 
z
" id="mcf9f2cf9ad" style="stroke:#000000;stroke-width:0.5;"/>
    </defs>
    <g clip-path="url(#pab536567b8)">
     <use style="stroke:#000000;stroke-width:0.5;" x="178.23656" xlink:href="#mcf9f2cf9ad" y="148.267296"/>
     <use style="stroke:#000000;stroke-width:0.5;" x="611.565676" xlink:href="#mcf9f2cf9ad" y="432.341832"/>
     <use style="stroke:#000000;stroke-width:0.5;" x="243.783845" xlink:href="#mcf9f2cf9ad" y="388.978512"/>
     <use style="stroke:#000000;stroke-width:0.5;" x="698.018993" xlink:href="#mcf9f2cf9ad" y="219.954736"/>
     <use style="stroke:#000000;stroke-width:0.5;" x="438.736453" xlink:href="#mcf9f2cf9ad" y="206.955372"/>
    </g>
   </g>
   <g id="patch_3">
    <path d="M 69.12 535.68 
L 69.12 69.12 
" style="fill:none;stroke:#f0f0f0;stroke-linecap:square;stroke-linejoin:miter;stroke-width:3;"/>
   </g>
   <g id="patch_4">
    <path d="M 820.8 535.68 
L 820.8 69.12 
" style="fill:none;stroke:#f0f0f0;stroke-linecap:square;stroke-linejoin:miter;stroke-width:3;"/>
   </g>
   <g id="patch_5">
    <path d="M 69.12 535.68 
L 820.8 535.68 
" style="fill:none;stroke:#f0f0f0;stroke-linecap:square;stroke-linejoin:miter;stroke-width:3;"/>
   </g>
   <g id="patch_6">
    <path d="M 69.12 69.12 
L 820.8 69.12 
" style="fill:none;stroke:#f0f0f0;stroke-linecap:square;stroke-linejoin:miter;stroke-width:3;"/>
   </g>
   <g id="text_16">
    <!-- K Means Clustering -->
    <defs>
     <path d="M 9.8125 72.90625 
L 19.671875 72.90625 
L 19.671875 42.09375 
L 52.390625 72.90625 
L 65.09375 72.90625 
L 28.90625 38.921875 
L 67.671875 0 
L 54.6875 0 
L 19.671875 35.109375 
L 19.671875 0 
L 9.8125 0 
z
" id="DejaVuSans-75"/>
     <path d="M 9.8125 72.90625 
L 24.515625 72.90625 
L 43.109375 23.296875 
L 61.8125 72.90625 
L 76.515625 72.90625 
L 76.515625 0 
L 66.890625 0 
L 66.890625 64.015625 
L 48.09375 14.015625 
L 38.1875 14.015625 
L 19.390625 64.015625 
L 19.390625 0 
L 9.8125 0 
z
" id="DejaVuSans-77"/>
     <path d="M 44.28125 53.078125 
L 44.28125 44.578125 
Q 40.484375 46.53125 36.375 47.5 
Q 32.28125 48.484375 27.875 48.484375 
Q 21.1875 48.484375 17.84375 46.4375 
Q 14.5 44.390625 14.5 40.28125 
Q 14.5 37.15625 16.890625 35.375 
Q 19.28125 33.59375 26.515625 31.984375 
L 29.59375 31.296875 
Q 39.15625 29.25 43.1875 25.515625 
Q 47.21875 21.78125 47.21875 15.09375 
Q 47.21875 7.46875 41.1875 3.015625 
Q 35.15625 -1.421875 24.609375 -1.421875 
Q 20.21875 -1.421875 15.453125 -0.5625 
Q 10.6875 0.296875 5.421875 2 
L 5.421875 11.28125 
Q 10.40625 8.6875 15.234375 7.390625 
Q 20.0625 6.109375 24.8125 6.109375 
Q 31.15625 6.109375 34.5625 8.28125 
Q 37.984375 10.453125 37.984375 14.40625 
Q 37.984375 18.0625 35.515625 20.015625 
Q 33.0625 21.96875 24.703125 23.78125 
L 21.578125 24.515625 
Q 13.234375 26.265625 9.515625 29.90625 
Q 5.8125 33.546875 5.8125 39.890625 
Q 5.8125 47.609375 11.28125 51.796875 
Q 16.75 56 26.8125 56 
Q 31.78125 56 36.171875 55.265625 
Q 40.578125 54.546875 44.28125 53.078125 
z
" id="DejaVuSans-115"/>
     <path d="M 64.40625 67.28125 
L 64.40625 56.890625 
Q 59.421875 61.53125 53.78125 63.8125 
Q 48.140625 66.109375 41.796875 66.109375 
Q 29.296875 66.109375 22.65625 58.46875 
Q 16.015625 50.828125 16.015625 36.375 
Q 16.015625 21.96875 22.65625 14.328125 
Q 29.296875 6.6875 41.796875 6.6875 
Q 48.140625 6.6875 53.78125 8.984375 
Q 59.421875 11.28125 64.40625 15.921875 
L 64.40625 5.609375 
Q 59.234375 2.09375 53.4375 0.328125 
Q 47.65625 -1.421875 41.21875 -1.421875 
Q 24.65625 -1.421875 15.125 8.703125 
Q 5.609375 18.84375 5.609375 36.375 
Q 5.609375 53.953125 15.125 64.078125 
Q 24.65625 74.21875 41.21875 74.21875 
Q 47.75 74.21875 53.53125 72.484375 
Q 59.328125 70.75 64.40625 67.28125 
z
" id="DejaVuSans-67"/>
     <path d="M 18.3125 70.21875 
L 18.3125 54.6875 
L 36.8125 54.6875 
L 36.8125 47.703125 
L 18.3125 47.703125 
L 18.3125 18.015625 
Q 18.3125 11.328125 20.140625 9.421875 
Q 21.96875 7.515625 27.59375 7.515625 
L 36.8125 7.515625 
L 36.8125 0 
L 27.59375 0 
Q 17.1875 0 13.234375 3.875 
Q 9.28125 7.765625 9.28125 18.015625 
L 9.28125 47.703125 
L 2.6875 47.703125 
L 2.6875 54.6875 
L 9.28125 54.6875 
L 9.28125 70.21875 
z
" id="DejaVuSans-116"/>
    </defs>
    <g transform="translate(348.633437 63.12)scale(0.2 -0.2)">
     <use xlink:href="#DejaVuSans-75"/>
     <use x="65.576172" xlink:href="#DejaVuSans-32"/>
     <use x="97.363281" xlink:href="#DejaVuSans-77"/>
     <use x="183.642578" xlink:href="#DejaVuSans-101"/>
     <use x="245.166016" xlink:href="#DejaVuSans-97"/>
     <use x="306.445312" xlink:href="#DejaVuSans-110"/>
     <use x="369.824219" xlink:href="#DejaVuSans-115"/>
     <use x="421.923828" xlink:href="#DejaVuSans-32"/>
     <use x="453.710938" xlink:href="#DejaVuSans-67"/>
     <use x="523.535156" xlink:href="#DejaVuSans-108"/>
     <use x="551.318359" xlink:href="#DejaVuSans-117"/>
     <use x="614.697266" xlink:href="#DejaVuSans-115"/>
     <use x="666.796875" xlink:href="#DejaVuSans-116"/>
     <use x="706.005859" xlink:href="#DejaVuSans-101"/>
     <use x="767.529297" xlink:href="#DejaVuSans-114"/>
     <use x="808.642578" xlink:href="#DejaVuSans-105"/>
     <use x="836.425781" xlink:href="#DejaVuSans-110"/>
     <use x="899.804688" xlink:href="#DejaVuSans-103"/>
    </g>
   </g>
   <g id="legend_1">
    <g id="patch_7">
     <path d="M 78.92 366.148125 
L 191.869375 366.148125 
Q 194.669375 366.148125 194.669375 363.348125 
L 194.669375 241.451875 
Q 194.669375 238.651875 191.869375 238.651875 
L 78.92 238.651875 
Q 76.12 238.651875 76.12 241.451875 
L 76.12 363.348125 
Q 76.12 366.148125 78.92 366.148125 
z
" style="fill:#f0f0f0;opacity:0.8;stroke:#cccccc;stroke-linejoin:miter;stroke-width:0.5;"/>
    </g>
    <g id="PathCollection_7">
     <g>
      <use style="fill:#6186c7;stroke:#6186c7;stroke-width:0.5;" x="95.72" xlink:href="#m37841ebcc5" y="251.214688"/>
     </g>
    </g>
    <g id="text_17">
     <!-- Cluster 1 -->
     <g transform="translate(120.92 254.889688)scale(0.14 -0.14)">
      <use xlink:href="#DejaVuSans-67"/>
      <use x="69.824219" xlink:href="#DejaVuSans-108"/>
      <use x="97.607422" xlink:href="#DejaVuSans-117"/>
      <use x="160.986328" xlink:href="#DejaVuSans-115"/>
      <use x="213.085938" xlink:href="#DejaVuSans-116"/>
      <use x="252.294922" xlink:href="#DejaVuSans-101"/>
      <use x="313.818359" xlink:href="#DejaVuSans-114"/>
      <use x="354.931641" xlink:href="#DejaVuSans-32"/>
      <use x="386.71875" xlink:href="#DejaVuSans-49"/>
     </g>
    </g>
    <g id="PathCollection_8">
     <g>
      <use style="fill:#19a9b7;stroke:#19a9b7;stroke-width:0.5;" x="95.72" xlink:href="#m93443c1247" y="271.764063"/>
     </g>
    </g>
    <g id="text_18">
     <!-- Cluster 2 -->
     <g transform="translate(120.92 275.439063)scale(0.14 -0.14)">
      <use xlink:href="#DejaVuSans-67"/>
      <use x="69.824219" xlink:href="#DejaVuSans-108"/>
      <use x="97.607422" xlink:href="#DejaVuSans-117"/>
      <use x="160.986328" xlink:href="#DejaVuSans-115"/>
      <use x="213.085938" xlink:href="#DejaVuSans-116"/>
      <use x="252.294922" xlink:href="#DejaVuSans-101"/>
      <use x="313.818359" xlink:href="#DejaVuSans-114"/>
      <use x="354.931641" xlink:href="#DejaVuSans-32"/>
      <use x="386.71875" xlink:href="#DejaVuSans-50"/>
     </g>
    </g>
    <g id="PathCollection_9">
     <g>
      <use style="fill:#51c669;stroke:#51c669;stroke-width:0.5;" x="95.72" xlink:href="#md05672d2c7" y="292.313438"/>
     </g>
    </g>
    <g id="text_19">
     <!-- Cluster 3 -->
     <defs>
      <path d="M 40.578125 39.3125 
Q 47.65625 37.796875 51.625 33 
Q 55.609375 28.21875 55.609375 21.1875 
Q 55.609375 10.40625 48.1875 4.484375 
Q 40.765625 -1.421875 27.09375 -1.421875 
Q 22.515625 -1.421875 17.65625 -0.515625 
Q 12.796875 0.390625 7.625 2.203125 
L 7.625 11.71875 
Q 11.71875 9.328125 16.59375 8.109375 
Q 21.484375 6.890625 26.8125 6.890625 
Q 36.078125 6.890625 40.9375 10.546875 
Q 45.796875 14.203125 45.796875 21.1875 
Q 45.796875 27.640625 41.28125 31.265625 
Q 36.765625 34.90625 28.71875 34.90625 
L 20.21875 34.90625 
L 20.21875 43.015625 
L 29.109375 43.015625 
Q 36.375 43.015625 40.234375 45.921875 
Q 44.09375 48.828125 44.09375 54.296875 
Q 44.09375 59.90625 40.109375 62.90625 
Q 36.140625 65.921875 28.71875 65.921875 
Q 24.65625 65.921875 20.015625 65.03125 
Q 15.375 64.15625 9.8125 62.3125 
L 9.8125 71.09375 
Q 15.4375 72.65625 20.34375 73.4375 
Q 25.25 74.21875 29.59375 74.21875 
Q 40.828125 74.21875 47.359375 69.109375 
Q 53.90625 64.015625 53.90625 55.328125 
Q 53.90625 49.265625 50.4375 45.09375 
Q 46.96875 40.921875 40.578125 39.3125 
z
" id="DejaVuSans-51"/>
     </defs>
     <g transform="translate(120.92 295.988438)scale(0.14 -0.14)">
      <use xlink:href="#DejaVuSans-67"/>
      <use x="69.824219" xlink:href="#DejaVuSans-108"/>
      <use x="97.607422" xlink:href="#DejaVuSans-117"/>
      <use x="160.986328" xlink:href="#DejaVuSans-115"/>
      <use x="213.085938" xlink:href="#DejaVuSans-116"/>
      <use x="252.294922" xlink:href="#DejaVuSans-101"/>
      <use x="313.818359" xlink:href="#DejaVuSans-114"/>
      <use x="354.931641" xlink:href="#DejaVuSans-32"/>
      <use x="386.71875" xlink:href="#DejaVuSans-51"/>
     </g>
    </g>
    <g id="PathCollection_10">
     <g>
      <use style="fill:#2771e2;stroke:#2771e2;stroke-width:0.5;" x="95.72" xlink:href="#m1a49761468" y="312.862813"/>
     </g>
    </g>
    <g id="text_20">
     <!-- Cluster 4 -->
     <g transform="translate(120.92 316.537813)scale(0.14 -0.14)">
      <use xlink:href="#DejaVuSans-67"/>
      <use x="69.824219" xlink:href="#DejaVuSans-108"/>
      <use x="97.607422" xlink:href="#DejaVuSans-117"/>
      <use x="160.986328" xlink:href="#DejaVuSans-115"/>
      <use x="213.085938" xlink:href="#DejaVuSans-116"/>
      <use x="252.294922" xlink:href="#DejaVuSans-101"/>
      <use x="313.818359" xlink:href="#DejaVuSans-114"/>
      <use x="354.931641" xlink:href="#DejaVuSans-32"/>
      <use x="386.71875" xlink:href="#DejaVuSans-52"/>
     </g>
    </g>
    <g id="PathCollection_11">
     <g>
      <use style="fill:#e1819d;stroke:#e1819d;stroke-width:0.5;" x="95.72" xlink:href="#m0b767fcf1e" y="333.412188"/>
     </g>
    </g>
    <g id="text_21">
     <!-- Cluster 5 -->
     <defs>
      <path d="M 10.796875 72.90625 
L 49.515625 72.90625 
L 49.515625 64.59375 
L 19.828125 64.59375 
L 19.828125 46.734375 
Q 21.96875 47.46875 24.109375 47.828125 
Q 26.265625 48.1875 28.421875 48.1875 
Q 40.625 48.1875 47.75 41.5 
Q 54.890625 34.8125 54.890625 23.390625 
Q 54.890625 11.625 47.5625 5.09375 
Q 40.234375 -1.421875 26.90625 -1.421875 
Q 22.3125 -1.421875 17.546875 -0.640625 
Q 12.796875 0.140625 7.71875 1.703125 
L 7.71875 11.625 
Q 12.109375 9.234375 16.796875 8.0625 
Q 21.484375 6.890625 26.703125 6.890625 
Q 35.15625 6.890625 40.078125 11.328125 
Q 45.015625 15.765625 45.015625 23.390625 
Q 45.015625 31 40.078125 35.4375 
Q 35.15625 39.890625 26.703125 39.890625 
Q 22.75 39.890625 18.8125 39.015625 
Q 14.890625 38.140625 10.796875 36.28125 
z
" id="DejaVuSans-53"/>
     </defs>
     <g transform="translate(120.92 337.087188)scale(0.14 -0.14)">
      <use xlink:href="#DejaVuSans-67"/>
      <use x="69.824219" xlink:href="#DejaVuSans-108"/>
      <use x="97.607422" xlink:href="#DejaVuSans-117"/>
      <use x="160.986328" xlink:href="#DejaVuSans-115"/>
      <use x="213.085938" xlink:href="#DejaVuSans-116"/>
      <use x="252.294922" xlink:href="#DejaVuSans-101"/>
      <use x="313.818359" xlink:href="#DejaVuSans-114"/>
      <use x="354.931641" xlink:href="#DejaVuSans-32"/>
      <use x="386.71875" xlink:href="#DejaVuSans-53"/>
     </g>
    </g>
    <g id="PathCollection_12">
     <g>
      <use style="stroke:#000000;stroke-width:0.5;" x="95.72" xlink:href="#mcf9f2cf9ad" y="353.961563"/>
     </g>
    </g>
    <g id="text_22">
     <!-- Centeroid -->
     <g transform="translate(120.92 357.636563)scale(0.14 -0.14)">
      <use xlink:href="#DejaVuSans-67"/>
      <use x="69.824219" xlink:href="#DejaVuSans-101"/>
      <use x="131.347656" xlink:href="#DejaVuSans-110"/>
      <use x="194.726562" xlink:href="#DejaVuSans-116"/>
      <use x="233.935547" xlink:href="#DejaVuSans-101"/>
      <use x="295.458984" xlink:href="#DejaVuSans-114"/>
      <use x="334.322266" xlink:href="#DejaVuSans-111"/>
      <use x="395.503906" xlink:href="#DejaVuSans-105"/>
      <use x="423.287109" xlink:href="#DejaVuSans-100"/>
     </g>
    </g>
   </g>
  </g>
 </g>
 <defs>
  <clipPath id="pab536567b8">
   <rect height="466.56" width="751.68" x="69.12" y="69.12"/>
  </clipPath>
 </defs>
</svg>
